<?xml version="1.0" encoding="utf-8"?>
<!-- Generator: Adobe Illustrator 19.0.0, SVG Export Plug-In . SVG Version: 6.00 Build 0)  -->
<svg version="1.1" id="Layer_1" xmlns="http://www.w3.org/2000/svg" xmlns:xlink="http://www.w3.org/1999/xlink" x="0px" y="0px"
	 viewBox="0 0 24 24" style="enable-background:new 0 0 24 24;" xml:space="preserve">
<style type="text/css">
	.st0{fill:#333333;}
</style>
<g id="Shopping_Bag">
	<g id="XMLID_40_">
		<path class="st0" d="M20.7,7c0-0.3-0.3-0.5-0.5-0.5h-3.8V4.4C16.4,2,14.4,0,12,0S7.6,2,7.6,4.4v2.2H3.8C3.5,6.5,3.3,6.8,3.3,7
			L1.1,23.4c0,0,0,0,0,0.1c0,0.3,0.2,0.5,0.5,0.5h20.7c0.4,0,0.6-0.2,0.6-0.6L20.7,7z M8.7,4.4c0-1.8,1.5-3.3,3.3-3.3
			s3.3,1.5,3.3,3.3v2.2H8.7V4.4z M2.3,22.9l2-15.3h15.5l2,15.3H2.3z"/>
	</g>
</g>
<circle class="st0" cx="8.2" cy="8.9" r="1"/>
<circle class="st0" cx="15.9" cy="8.9" r="1"/>
<polygon class="st0" points="7.6,6.9 7.6,8.4 8.7,8.4 8.7,6.8 "/>
<polygon class="st0" points="15.3,6.8 15.3,8.3 16.4,8.3 16.4,6.7 "/>
</svg>
