<?xml version="1.0" encoding="utf-8"?>
<!-- Generator: Adobe Illustrator 19.0.0, SVG Export Plug-In . SVG Version: 6.00 Build 0)  -->
<svg version="1.1" id="Layer_1" xmlns="http://www.w3.org/2000/svg" xmlns:xlink="http://www.w3.org/1999/xlink" x="0px" y="0px"
	 viewBox="0 0 24 24" style="enable-background:new 0 0 24 24;" xml:space="preserve">
<style type="text/css">
	.st0{fill:#333333;}
</style>
<g id="X_x40_2x.png">
	<g id="XMLID_16_">
		<path id="XMLID_17_" class="st0" d="M12.9,12L23.8,1.1C23.9,1,24,0.9,24,0.7C24,0.3,23.7,0,23.3,0c-0.2,0-0.4,0.1-0.5,0.2L12,11.1
			L1.1,0.2C1,0.1,0.9,0,0.7,0C0.3,0,0,0.3,0,0.7C0,0.9,0.1,1,0.2,1.1L11.1,12L0.2,22.9C0.1,23,0,23.1,0,23.3C0,23.7,0.3,24,0.7,24
			c0.2,0,0.4-0.1,0.5-0.2L12,12.9l10.9,10.9c0.1,0.1,0.3,0.2,0.5,0.2c0.4,0,0.7-0.3,0.7-0.7c0-0.2-0.1-0.4-0.2-0.5L12.9,12z"/>
	</g>
</g>
</svg>
