<?xml version="1.0" encoding="utf-8"?>
<!-- Generator: Adobe Illustrator 19.0.0, SVG Export Plug-In . SVG Version: 6.00 Build 0)  -->
<svg version="1.1" id="Layer_1" xmlns="http://www.w3.org/2000/svg" xmlns:xlink="http://www.w3.org/1999/xlink" x="0px" y="0px"
	 viewBox="0 0 24 24" style="enable-background:new 0 0 24 24;" xml:space="preserve">
<style type="text/css">
	.st0{fill:#333333;}
</style>
<g id="Magnify_Glass_x40_2x.png">
	<g id="XMLID_31_">
		<path id="XMLID_32_" class="st0" d="M23.8,23.1L18,17.3c1.7-1.8,2.7-4.3,2.7-6.9C20.7,4.6,16.1,0,10.4,0C4.6,0,0,4.6,0,10.4
			c0,5.7,4.6,10.4,10.4,10.4c2.7,0,5.1-1,6.9-2.7l5.8,5.8c0.1,0.1,0.2,0.2,0.4,0.2c0.3,0,0.5-0.2,0.5-0.5
			C24,23.3,23.9,23.2,23.8,23.1z M10.4,19.6c-5.1,0-9.3-4.2-9.3-9.3S5.3,1,10.4,1s9.3,4.2,9.3,9.3C19.6,15.5,15.5,19.6,10.4,19.6z"
			/>
	</g>
</g>
</svg>
