<?xml version="1.0" encoding="utf-8"?>
<!-- Generator: Adobe Illustrator 19.0.0, SVG Export Plug-In . SVG Version: 6.00 Build 0)  -->
<svg version="1.1" id="Layer_1" xmlns="http://www.w3.org/2000/svg" xmlns:xlink="http://www.w3.org/1999/xlink" x="0px" y="0px"
	 viewBox="0 0 24 24" style="enable-background:new 0 0 24 24;" xml:space="preserve">
<style type="text/css">
	.st0{fill:#333333;}
</style>
<g>
	<path class="st0" d="M22.4,24.1H0.6v-5.2c0-1.4,2.8-2.7,4.5-3.3c3-1.1,3.5-1.9,3.5-3.3c0-0.1,0-0.2,0-0.3s-0.1-0.2-0.2-0.3
		c-0.3-0.3-0.7-0.8-1-2.1c0-0.1,0-0.1,0-0.1s-0.1,0-0.1-0.1c-0.5-0.3-0.9-0.6-1-1.9c0-0.6,0.2-1,0.4-1.2C6.5,5.9,6.4,5.2,6.3,4.5
		s0.2-2,1.1-2.9c0.6-0.7,1.8-1.5,4-1.5h0.1c2.2,0,3.4,0.8,4,1.5c0.9,1,1.1,2.2,1.1,2.9c-0.1,0.6-0.2,1.4-0.3,1.8
		c0.2,0.2,0.4,0.6,0.4,1.2c-0.1,1.3-0.4,1.6-1,1.9c0,0-0.1,0-0.1,0.1c0,0,0,0,0,0.1c-0.2,1.3-0.7,1.7-1,2.1
		c-0.1,0.1-0.2,0.2-0.2,0.3s0,0.2,0,0.3c0,1.4,0.5,2.3,3.5,3.3l0,0c1.7,0.6,4.5,1.8,4.5,3.3C22.4,18.9,22.4,24.1,22.4,24.1z
		 M1.6,23.1h19.9v-4.2c0-0.3-0.7-1.2-3.9-2.4l0,0c-2.7-1-4.1-1.9-4.1-4.2c0-0.3,0-0.5,0.1-0.7c0.1-0.3,0.3-0.5,0.4-0.6
		c0.3-0.3,0.5-0.6,0.7-1.6c0.1-0.6,0.5-0.7,0.7-0.8s0.3-0.2,0.4-1.1c0-0.4-0.2-0.5-0.2-0.5l-0.3-0.2l0.1-0.4c0,0,0.2-1.1,0.3-2
		c0-0.4-0.1-1.4-0.8-2.2C14.1,1.4,13,1,11.6,1h-0.1C10,1,8.9,1.4,8.1,2.2C7.4,3,7.3,4,7.3,4.4c0.1,0.9,0.3,2,0.3,2l0.1,0.4L7.3,7
		c0,0-0.1,0.1-0.1,0.5c0.1,0.9,0.2,1,0.4,1c0.2,0.1,0.6,0.3,0.7,0.8c0.2,1,0.5,1.3,0.7,1.6c0.2,0.2,0.3,0.4,0.4,0.6
		c0.1,0.2,0.1,0.4,0.1,0.7c0,2.3-1.4,3.2-4.1,4.2c-3.2,1.1-3.9,2.1-3.9,2.4v4.3H1.6z"/>
</g>
</svg>
