<?xml version="1.0" encoding="utf-8"?>
<!-- Generator: Adobe Illustrator 19.1.0, SVG Export Plug-In . SVG Version: 6.00 Build 0)  -->
<svg version="1.1" id="Layer_1" xmlns="http://www.w3.org/2000/svg" xmlns:xlink="http://www.w3.org/1999/xlink" x="0px" y="0px"
	 viewBox="0 0 24 24" style="enable-background:new 0 0 24 24;" xml:space="preserve">
<style type="text/css">
	.st0{fill:#333333;}
</style>
<g id="Heart_x40_2x.png">
	<g>
		<path class="st0" d="M24,7.1C24,3.2,20.8,0,16.9,0C15,0,13.3,0.8,12,2c-1.3-1.2-3-2-4.9-2C3.2,0,0,3.2,0,7.1c0,0.5,0.1,1,0.1,0.8
			C0.8,14.9,11,24,12,24s11.2-9.1,11.9-16.1C23.9,8.1,24,7.5,24,7.1z M22.9,7.8c-0.6,5.8-8.8,13.8-10.9,15c-2-1.2-10.2-9.2-10.9-15
			c0,0,0-0.3,0-0.7c0-3.3,2.7-6,6-6c1.6,0,3,0.6,4.2,1.7L12,3.5l0.8-0.7c1.1-1.1,2.6-1.7,4.2-1.7c3.3,0,6,2.7,6,6
			C22.9,7.5,22.9,7.8,22.9,7.8z"/>
	</g>
</g>
</svg>
